<svg width="133" height="47" viewBox="0 0 133 47" fill="none" xmlns="http://www.w3.org/2000/svg">
<path d="M18.9551 46L6.62109 10.2285H6.35742C6.41602 11.0293 6.48438 12.123 6.5625 13.5098C6.64062 14.8965 6.70898 16.3809 6.76758 17.9629C6.82617 19.5449 6.85547 21.0586 6.85547 22.5039V46H0.46875V3.16797H10.3418L22.207 37.3574H22.3828L34.6582 3.16797H44.502V46H37.793V22.1523C37.793 20.8438 37.8125 19.4277 37.8516 17.9043C37.9102 16.3809 37.9688 14.9355 38.0273 13.5684C38.1055 12.2012 38.1641 11.1074 38.2031 10.2871H37.9688L25.166 46H18.9551Z" fill="#3AAFA9"/>
<path d="M60.1875 4.375C61.7292 4.375 63.0521 4.69271 64.1562 5.32812C65.2604 5.96354 66.1094 6.86458 66.7031 8.03125C67.2969 9.19792 67.5938 10.5938 67.5938 12.2188V14.1875H56.0469C56.0885 15.8646 56.5365 17.1562 57.3906 18.0625C58.2552 18.9688 59.4635 19.4219 61.0156 19.4219C62.1198 19.4219 63.1094 19.3177 63.9844 19.1094C64.8698 18.8906 65.7812 18.5729 66.7188 18.1562V21.1406C65.8542 21.5469 64.974 21.8438 64.0781 22.0312C63.1823 22.2188 62.1094 22.3125 60.8594 22.3125C59.1615 22.3125 57.6667 21.9844 56.375 21.3281C55.0938 20.6615 54.0885 19.6719 53.3594 18.3594C52.6406 17.0469 52.2812 15.4167 52.2812 13.4688C52.2812 11.5312 52.6094 9.88542 53.2656 8.53125C53.9219 7.17708 54.8438 6.14583 56.0312 5.4375C57.2188 4.72917 58.6042 4.375 60.1875 4.375ZM60.1875 7.14062C59.0312 7.14062 58.0938 7.51562 57.375 8.26562C56.6667 9.01562 56.25 10.1146 56.125 11.5625H64C63.9896 10.6979 63.8438 9.93229 63.5625 9.26562C63.2917 8.59896 62.875 8.07812 62.3125 7.70312C61.7604 7.32812 61.0521 7.14062 60.1875 7.14062ZM78.1719 19.3438C78.651 19.3438 79.125 19.3021 79.5938 19.2188C80.0625 19.125 80.4896 19.0156 80.875 18.8906V21.6719C80.4688 21.849 79.9427 22 79.2969 22.125C78.651 22.25 77.9792 22.3125 77.2812 22.3125C76.3021 22.3125 75.4219 22.151 74.6406 21.8281C73.8594 21.4948 73.2396 20.9271 72.7812 20.125C72.3229 19.3229 72.0938 18.2135 72.0938 16.7969V7.5H69.7344V5.85938L72.2656 4.5625L73.4688 0.859375H75.7812V4.70312H80.7344V7.5H75.7812V16.75C75.7812 17.625 76 18.276 76.4375 18.7031C76.875 19.1302 77.4531 19.3438 78.1719 19.3438ZM91.1719 4.375C93.3594 4.375 95.0104 4.85938 96.125 5.82812C97.25 6.79688 97.8125 8.30729 97.8125 10.3594V22H95.2031L94.5 19.5469H94.375C93.8854 20.1719 93.3802 20.6875 92.8594 21.0938C92.3385 21.5 91.7344 21.8021 91.0469 22C90.3698 22.2083 89.5417 22.3125 88.5625 22.3125C87.5312 22.3125 86.6094 22.125 85.7969 21.75C84.9844 21.3646 84.3438 20.7812 83.875 20C83.4062 19.2188 83.1719 18.2292 83.1719 17.0312C83.1719 15.25 83.8333 13.9115 85.1562 13.0156C86.4896 12.1198 88.5 11.625 91.1875 11.5312L94.1875 11.4219V10.5156C94.1875 9.31771 93.9062 8.46354 93.3438 7.95312C92.7917 7.44271 92.0104 7.1875 91 7.1875C90.1354 7.1875 89.2969 7.3125 88.4844 7.5625C87.6719 7.8125 86.8802 8.11979 86.1094 8.48438L84.9219 5.89062C85.7656 5.44271 86.724 5.07812 87.7969 4.79688C88.8802 4.51562 90.0052 4.375 91.1719 4.375ZM94.1719 13.7344L91.9375 13.8125C90.1042 13.875 88.8177 14.1875 88.0781 14.75C87.3385 15.3125 86.9688 16.0833 86.9688 17.0625C86.9688 17.9167 87.224 18.5417 87.7344 18.9375C88.2448 19.3229 88.9167 19.5156 89.75 19.5156C91.0208 19.5156 92.0729 19.1562 92.9062 18.4375C93.75 17.7083 94.1719 16.6406 94.1719 15.2344V13.7344Z" fill="black"/>
<path d="M59.5 28.375C61.6875 28.375 63.3385 28.8594 64.4531 29.8281C65.5781 30.7969 66.1406 32.3073 66.1406 34.3594V46H63.5312L62.8281 43.5469H62.7031C62.2135 44.1719 61.7083 44.6875 61.1875 45.0938C60.6667 45.5 60.0625 45.8021 59.375 46C58.6979 46.2083 57.8698 46.3125 56.8906 46.3125C55.8594 46.3125 54.9375 46.125 54.125 45.75C53.3125 45.3646 52.6719 44.7812 52.2031 44C51.7344 43.2188 51.5 42.2292 51.5 41.0312C51.5 39.25 52.1615 37.9115 53.4844 37.0156C54.8177 36.1198 56.8281 35.625 59.5156 35.5312L62.5156 35.4219V34.5156C62.5156 33.3177 62.2344 32.4635 61.6719 31.9531C61.1198 31.4427 60.3385 31.1875 59.3281 31.1875C58.4635 31.1875 57.625 31.3125 56.8125 31.5625C56 31.8125 55.2083 32.1198 54.4375 32.4844L53.25 29.8906C54.0938 29.4427 55.0521 29.0781 56.125 28.7969C57.2083 28.5156 58.3333 28.375 59.5 28.375ZM62.5 37.7344L60.2656 37.8125C58.4323 37.875 57.1458 38.1875 56.4062 38.75C55.6667 39.3125 55.2969 40.0833 55.2969 41.0625C55.2969 41.9167 55.5521 42.5417 56.0625 42.9375C56.5729 43.3229 57.2448 43.5156 58.0781 43.5156C59.349 43.5156 60.401 43.1562 61.2344 42.4375C62.0781 41.7083 62.5 40.6406 62.5 39.2344V37.7344ZM80.0469 28.375C80.3385 28.375 80.6562 28.3906 81 28.4219C81.3438 28.4531 81.6406 28.4948 81.8906 28.5469L81.5469 31.9844C81.3281 31.9219 81.0573 31.875 80.7344 31.8438C80.4219 31.8125 80.1406 31.7969 79.8906 31.7969C79.2344 31.7969 78.6094 31.9062 78.0156 32.125C77.4219 32.3333 76.8958 32.6562 76.4375 33.0938C75.9792 33.5208 75.6198 34.0573 75.3594 34.7031C75.099 35.349 74.9688 36.099 74.9688 36.9531V46H71.2812V28.7031H74.1562L74.6562 31.75H74.8281C75.1719 31.1354 75.599 30.5729 76.1094 30.0625C76.6198 29.5521 77.2031 29.1458 77.8594 28.8438C78.526 28.5312 79.2552 28.375 80.0469 28.375ZM88.7656 21.6875V33.4375C88.7656 33.9688 88.7448 34.5521 88.7031 35.1875C88.6615 35.8125 88.6198 36.401 88.5781 36.9531H88.6562C88.9271 36.5885 89.25 36.1615 89.625 35.6719C90.0104 35.1823 90.375 34.7552 90.7188 34.3906L96 28.7031H100.219L93.2969 36.1406L100.672 46H96.3594L90.8281 38.4062L88.7656 40.1719V46H85.0938V21.6875H88.7656ZM110.328 28.375C111.87 28.375 113.193 28.6927 114.297 29.3281C115.401 29.9635 116.25 30.8646 116.844 32.0312C117.438 33.1979 117.734 34.5938 117.734 36.2188V38.1875H106.188C106.229 39.8646 106.677 41.1562 107.531 42.0625C108.396 42.9688 109.604 43.4219 111.156 43.4219C112.26 43.4219 113.25 43.3177 114.125 43.1094C115.01 42.8906 115.922 42.5729 116.859 42.1562V45.1406C115.995 45.5469 115.115 45.8438 114.219 46.0312C113.323 46.2188 112.25 46.3125 111 46.3125C109.302 46.3125 107.807 45.9844 106.516 45.3281C105.234 44.6615 104.229 43.6719 103.5 42.3594C102.781 41.0469 102.422 39.4167 102.422 37.4688C102.422 35.5312 102.75 33.8854 103.406 32.5312C104.062 31.1771 104.984 30.1458 106.172 29.4375C107.359 28.7292 108.745 28.375 110.328 28.375ZM110.328 31.1406C109.172 31.1406 108.234 31.5156 107.516 32.2656C106.807 33.0156 106.391 34.1146 106.266 35.5625H114.141C114.13 34.6979 113.984 33.9323 113.703 33.2656C113.432 32.599 113.016 32.0781 112.453 31.7031C111.901 31.3281 111.193 31.1406 110.328 31.1406ZM128.312 43.3438C128.792 43.3438 129.266 43.3021 129.734 43.2188C130.203 43.125 130.63 43.0156 131.016 42.8906V45.6719C130.609 45.849 130.083 46 129.438 46.125C128.792 46.25 128.12 46.3125 127.422 46.3125C126.443 46.3125 125.562 46.151 124.781 45.8281C124 45.4948 123.38 44.9271 122.922 44.125C122.464 43.3229 122.234 42.2135 122.234 40.7969V31.5H119.875V29.8594L122.406 28.5625L123.609 24.8594H125.922V28.7031H130.875V31.5H125.922V40.75C125.922 41.625 126.141 42.276 126.578 42.7031C127.016 43.1302 127.594 43.3438 128.312 43.3438Z" fill="black"/>
</svg>
